<svg xmlns="http://www.w3.org/2000/svg" width="320" height="185.315" viewBox="0 0 320 185.315">
  <g id="s1" transform="translate(-0.004 0)">
    <path id="Path_14411" data-name="Path 14411" d="M317.05,58.333c-6.237-7.9-21.3-26.674-26.575-30.326-9.3-6.464-20.086-2.43-21.286-1.95l-.308.133c-.8.364-80.446,36.49-87.532,39.67-7.964,3.57-14.183,7.548-20.574,16.327-5.216,7.167-6.884,13.845-8.1,18.718a25.7,25.7,0,0,1-1.286,4.312c-1.037,1.925-4.565,4.981-7.514,5.2a10.6,10.6,0,0,1-6.588-1.577,1.868,1.868,0,0,0-.163-.124c-8.483-6.429-24.861-18.907-26.147-19.9l-.064-.051a8.582,8.582,0,0,1-3.712-5.928c-.566-3.322.214-5.941,2.692-9.044a10.832,10.832,0,0,1,5.1-2.94,1.894,1.894,0,0,0,.214-.051c.219-.051,22.049-5.5,27.985-6.858a75.561,75.561,0,0,0,13.228-4.055c10.039-4.111,19.43-12.859,25.122-23.408,4.334-7.968,6.207-19.04,6.159-21.9a15.049,15.049,0,0,0-2.216-8.02,13.974,13.974,0,0,0-6.352-5.409,12.5,12.5,0,0,0-9.859-.253c-2.675,1-27.7,10.377-39.246,14.574-8.526,3.1-18.165,5.144-25.208,6.64-2.306.489-4.286.913-6,1.32-6.408,1.513-12.07,2.773-26.922,5.847C54.919,32.786,46.119,35.444,32.66,41.119A175.884,175.884,0,0,0,4.37,56.464C.049,59.975-.3,63.957.156,66.678c.917,5.456,6.228,7.951,8.753,8.838,3.129,1.286,6.982,2.773,11.054,4.355,12.143,4.715,27.261,10.566,37.458,16.2,11.607,6.429,21.53,16.031,29.507,23.755,2.1,2.032,4.076,3.948,5.885,5.6,4.466,4.089,20.3,18.221,36.5,28.29,11.432,7.107,27.48,16.635,35.2,21.217l3.078,1.83a29.142,29.142,0,0,1,4.916,3.858c2.143,1.963,4.6,4.192,8.187,4.621a8.8,8.8,0,0,0,1.106.069,13.514,13.514,0,0,0,8.17-3.3l107.047-84.4.051-.043A83.6,83.6,0,0,0,317.547,74.1,16.214,16.214,0,0,0,320,66.387,13.52,13.52,0,0,0,317.05,58.333Zm-5.114,12.636a77.52,77.52,0,0,1-18.9,21.586l-50.973,40.18h0l-56.151,44.256c-.382.317-2.357,1.873-4.141,1.873a2.917,2.917,0,0,1-.334,0c-1.539-.184-2.9-1.423-4.616-3a35.493,35.493,0,0,0-5.962-4.621l-3.082-1.835c-7.715-4.569-23.708-14.076-35.088-21.149-15.722-9.769-31.183-23.575-35.547-27.561-1.74-1.595-3.691-3.48-5.757-5.482-7.8-7.574-18.517-17.917-30.857-24.775C49.955,84.6,34.614,78.654,22.291,73.875l-1.959-.759h0l-1-.386-.429-.176-.073-.026-1-.39h0c-2.289-.892-4.6-1.8-6.635-2.64-.793-.27-4.286-1.582-4.685-3.888a4.218,4.218,0,0,1,1.916-4.158A176.09,176.09,0,0,1,35.146,47.047c12.975-5.474,21.526-8.041,38.02-11.47,14.929-3.086,20.634-4.359,27.1-5.885,1.65-.39,3.609-.806,5.877-1.286,7.222-1.53,17.12-3.631,26.069-6.888,11.963-4.372,38.328-14.231,39.5-14.659a5.966,5.966,0,0,1,4.8.18,7.668,7.668,0,0,1,3.472,2.872,8.619,8.619,0,0,1,1.286,4.715c0,1.8-1.612,11.865-5.354,18.8-5.006,9.284-13.193,16.948-21.9,20.514a68.264,68.264,0,0,1-12.233,3.738c-6,1.376-27.861,6.832-28.1,6.888-.09,0-5.619,1.256-8.778,5.212-3.609,4.522-4.882,9-4.008,14.145a14.918,14.918,0,0,0,6.1,9.919l.064.051c1.226.956,15.431,11.77,22.4,17.064h0l3.793,2.885.129.1a17.021,17.021,0,0,0,10.982,2.893c5.2-.377,10.647-4.736,12.7-8.573a26.905,26.905,0,0,0,1.873-5.808c1.149-4.6,2.572-10.334,7.064-16.494,4.976-6.858,9.52-10.437,18-14.239,7.1-3.185,86.76-39.319,87.561-39.683h.043c.347-.141,8.573-3.36,15.225,1.26C291.8,36.747,311.19,61.295,312,62.315a7.266,7.266,0,0,1,1.577,3.986A10.457,10.457,0,0,1,311.936,70.969Z" transform="translate(0 0)" fill="#2c343c"/>
    <path id="Path_14412" data-name="Path 14412" d="M295.185,46.176c-5.51-3.811-12.684-1.182-13.1-1.025-1.835.847-79.948,36.068-86.961,39.2-8.034,3.583-12.348,6.962-17.031,13.382-4.207,5.751-5.573,11.193-6.672,15.563a26.927,26.927,0,0,1-2.048,6.246c-2.363,4.358-8.371,9.126-14.34,9.558a19.19,19.19,0,0,1-11.607-2.782l-.026.034-.6-.453c-.136-.1-.221-.165-.264-.2-1.107-.847-24.406-18.46-26.023-19.717l-.064-.047a16.9,16.9,0,0,1-6.847-11.116c-.975-5.7.426-10.676,4.415-15.648,3.623-4.51,9.648-5.836,9.9-5.891.187-.047,21.949-5.442,27.922-6.805a66.463,66.463,0,0,0,11.82-3.591c8.2-3.341,15.937-10.562,20.684-19.311,3.479-6.412,5.075-15.948,5.063-17.553a6.377,6.377,0,0,0-.954-3.583,5.555,5.555,0,0,0-2.5-1.99,3.762,3.762,0,0,0-3.023-.186l-.1.042c-.272.1-27.19,10.134-39.291,14.513-9.009,3.248-18.943,5.34-26.185,6.869-2.24.47-4.173.881-5.786,1.27-6.442,1.516-12.126,2.774-26.977,5.831C68.373,52.122,59.986,54.637,47.212,60A175.252,175.252,0,0,0,21.185,73.923c-.775.627-1.311,1.148-1.145,2.117.128.762,1.98,1.766,3.266,2.2l.068.025c2.452,1,5.339,2.117,8.09,3.189l.23.089,2.7,1.042c12.3,4.743,27.616,10.651,38.248,16.495,12.522,6.886,23.269,17.236,31.116,24.8,2.039,1.965,3.968,3.811,5.671,5.374,4.3,3.917,19.539,17.439,35,27,11.283,6.971,27.177,16.359,34.816,20.869l3.066,1.812a37.466,37.466,0,0,1,6.267,4.824c1.426,1.292,2.555,2.312,3.406,2.414.7.089,2.129-.771,2.853-1.376l53.852-42.221h0l52.554-41.235a74.988,74.988,0,0,0,18.232-20.683,8.7,8.7,0,0,0,1.371-3.625,5.241,5.241,0,0,0-1.107-2.6C319.54,74.181,299.873,49.416,295.185,46.176Zm18.734,31.38a68,68,0,0,1-16.635,18.815L192.394,178.6a41.552,41.552,0,0,0-6.812-5.145l-3.074-1.821c-7.621-4.5-23.477-13.865-34.705-20.8-15-9.27-29.86-22.466-34.062-26.286-1.639-1.495-3.534-3.32-5.535-5.251-8.09-7.809-19.2-18.5-32.47-25.794C64.725,87.444,49.188,81.452,36.7,76.641l-4.777-1.851a164.171,164.171,0,0,1,17.789-8.952C62.191,60.6,69.974,58.271,85.907,54.993c14.928-3.075,20.65-4.341,27.152-5.869,1.541-.364,3.445-.762,5.646-1.228,7.421-1.567,17.589-3.714,27.041-7.131,10.1-3.655,30.464-11.227,37.162-13.721-.426,2.744-1.763,9.084-4.16,13.5-1.524,2.808-7.289,12.281-17.482,16.448a60.212,60.212,0,0,1-10.832,3.278c-5.876,1.342-26.3,6.4-27.991,6.822-1.4.318-8.673,2.223-13.395,8.1-5.135,6.4-7.008,13.166-5.718,20.683a23.12,23.12,0,0,0,9.214,15.055l.06.047c1.635,1.27,24.521,18.578,26.053,19.739a25.271,25.271,0,0,0,16.857,4.7c8.554-.623,16.282-6.949,19.5-12.878a32.8,32.8,0,0,0,2.627-7.707c1.013-4.04,2.159-8.614,5.637-13.365,4.049-5.539,7.43-8.182,14.477-11.328,6.864-3.058,81.617-36.784,86.74-39.1.707-.229,4.581-1.368,7.034.33,2.6,1.918,13.493,14.792,22.46,26.044Zm.779.754h0l.072.089Z" transform="translate(-10.421 -10.438)" fill="#2c343c"/>
  </g>
</svg>
